<?xml version="1.0" encoding="UTF-8" standalone="no"?>
<!-- Created with Inkscape (http://www.inkscape.org/) -->

<svg
   width="64"
   height="64"
   viewBox="0 0 64 64"
   version="1.1"
   id="svg5"
   xmlns="http://www.w3.org/2000/svg"
   xmlns:svg="http://www.w3.org/2000/svg">
  <defs
     id="defs2">
    <rect
       x="104.65724"
       y="108.92548"
       width="263.82712"
       height="123.8255"
       id="rect41757" />
    <rect
       x="104.65724"
       y="108.92548"
       width="263.82712"
       height="123.8255"
       id="rect46115" />
    <rect
       x="104.65724"
       y="108.92548"
       width="263.82712"
       height="123.8255"
       id="rect2818" />
    <rect
       x="104.65724"
       y="108.92548"
       width="263.82712"
       height="123.8255"
       id="rect2820" />
    <rect
       x="104.65724"
       y="108.92548"
       width="263.82712"
       height="123.8255"
       id="rect2822" />
  </defs>
  <g
     id="layer5"
     style="display:inline"
     transform="scale(3.7795276)">
    <g
       id="layer2"
       style="display:inline"
       transform="matrix(0.12536626,0,0,0.12536626,0.08345113,-0.01256868)">
      <rect
         style="opacity:1;fill:#000000;fill-opacity:0.2;stroke:#cd9c6d;stroke-width:0;stroke-dasharray:none;stroke-opacity:1"
         id="rect1064"
         width="109.7451"
         height="109.7451"
         x="7.7762728"
         y="12.763153"
         rx="10.161584"
         ry="10.552412" />
      <rect
         style="display:inline;fill:#cd9c6d;fill-opacity:1;stroke:#cd9c6d;stroke-width:0;stroke-dasharray:none;stroke-opacity:1"
         id="rect1045"
         width="109.7451"
         height="109.7451"
         x="7.7762728"
         y="8.5421867"
         rx="10.161584"
         ry="10.552412" />
    </g>
    <rect
       style="display:inline;fill:#e3c4a9;fill-opacity:1;stroke:#e3c4a9;stroke-width:0.0791717;stroke-miterlimit:4;stroke-dasharray:none;stroke-opacity:1"
       id="rect13472"
       width="3.0958283"
       height="1.5083282"
       x="6.6541691"
       y="13.268752" />
    <rect
       style="display:inline;fill:#e3c4a9;fill-opacity:1;stroke:#e3c4a9;stroke-width:0.0791717;stroke-miterlimit:4;stroke-dasharray:none;stroke-opacity:1"
       id="rect7323"
       width="3.0958283"
       height="1.5083282"
       x="6.6541691"
       y="1.0979191" />
  </g>
  <g
     aria-label="B"
     transform="matrix(0.14357078,0,0,0.20355974,6.9478228,-6.7406233)"
     id="text2796"
     style="font-size:94.5957px;line-height:1.25;white-space:pre;shape-inside:url(#rect2818);display:inline;opacity:0.2">
    <path
       d="m 213.29188,125.21345 h 21.01613 q 14.36488,0 20.83138,4.11084 6.51269,4.06466 6.51269,12.9792 0,6.0508 -2.86373,9.9307 -2.81755,3.8799 -7.52886,4.66512 v 0.46189 q 6.42031,1.43187 9.23786,5.35796 2.86374,3.9261 2.86374,10.43879 0,9.23786 -6.69745,14.41106 -6.65126,5.1732 -18.10621,5.1732 h -25.26555 z m 14.31868,26.74361 h 8.31408 q 5.81985,0 8.40645,-1.80139 2.63279,-1.80138 2.63279,-5.95842 0,-3.8799 -2.86373,-5.54272 -2.81755,-1.709 -8.96073,-1.709 h -7.52886 z m 0,11.36257 v 17.59812 h 9.33024 q 5.91223,0 8.72978,-2.26327 2.81755,-2.26328 2.81755,-6.9284 0,-8.40645 -12.00922,-8.40645 z"
       style="font-weight:bold;font-family:'Open Sans';-inkscape-font-specification:'Open Sans Bold';text-align:center;text-anchor:middle"
       id="path1749" />
  </g>
  <g
     aria-label="E"
     transform="matrix(0.14357078,0,0,0.20355974,-3.086008,-6.7406233)"
     id="text2804"
     style="font-size:94.5957px;line-height:1.25;white-space:pre;shape-inside:url(#rect2820);display:inline;opacity:0.2">
    <path
       d="m 257.47195,192.74221 h -38.8914 v -67.52876 h 38.8914 v 11.73208 h -24.57271 v 14.82677 h 22.86371 v 11.73208 h -22.86371 v 17.41337 h 24.57271 z"
       style="font-weight:bold;font-family:'Open Sans';-inkscape-font-specification:'Open Sans Bold';text-align:center;text-anchor:middle"
       id="path1728" />
  </g>
  <g
     aria-label="D"
     transform="matrix(0.14357078,0,0,0.20355974,-13.087977,-6.7406233)"
     id="text2812"
     style="font-size:94.5957px;line-height:1.25;white-space:pre;shape-inside:url(#rect2822);display:inline;opacity:0.2">
    <path
       d="m 266.08626,158.33118 q 0,16.67434 -9.515,25.54269 -9.46881,8.86834 -27.39026,8.86834 h -19.12237 v -67.52876 h 21.20089 q 16.53577,0 25.68125,8.72978 9.14549,8.72977 9.14549,24.38795 z m -14.87296,0.36951 q 0,-21.75516 -19.21475,-21.75516 h -7.62124 v 43.97222 h 6.14318 q 20.69281,0 20.69281,-22.21706 z"
       style="font-weight:bold;font-family:'Open Sans';-inkscape-font-specification:'Open Sans Bold';text-align:center;text-anchor:middle"
       id="path1707" />
  </g>
  <g
     aria-label="B"
     transform="matrix(0.14357078,0,0,0.20355974,6.9478228,-7.7406233)"
     id="text46111"
     style="font-size:94.5957px;line-height:1.25;white-space:pre;shape-inside:url(#rect46115);display:inline;fill:#1f170f">
    <path
       d="m 213.29188,125.21345 h 21.01613 q 14.36488,0 20.83138,4.11084 6.51269,4.06466 6.51269,12.9792 0,6.0508 -2.86373,9.9307 -2.81755,3.8799 -7.52886,4.66512 v 0.46189 q 6.42031,1.43187 9.23786,5.35796 2.86374,3.9261 2.86374,10.43879 0,9.23786 -6.69745,14.41106 -6.65126,5.1732 -18.10621,5.1732 h -25.26555 z m 14.31868,26.74361 h 8.31408 q 5.81985,0 8.40645,-1.80139 2.63279,-1.80138 2.63279,-5.95842 0,-3.8799 -2.86373,-5.54272 -2.81755,-1.709 -8.96073,-1.709 h -7.52886 z m 0,11.36257 v 17.59812 h 9.33024 q 5.91223,0 8.72978,-2.26327 2.81755,-2.26328 2.81755,-6.9284 0,-8.40645 -12.00922,-8.40645 z"
       style="font-weight:bold;font-family:'Open Sans';-inkscape-font-specification:'Open Sans Bold';text-align:center;text-anchor:middle"
       id="path1668" />
  </g>
  <g
     aria-label="E"
     transform="matrix(0.14357078,0,0,0.20355974,-3.086008,-7.7406233)"
     id="text37995"
     style="font-size:94.5957px;white-space:pre;fill:#1f170f">
    <path
       d="m 257.47195,192.74221 h -38.8914 v -67.52876 h 38.8914 v 11.73208 h -24.57271 v 14.82677 h 22.86371 v 11.73208 h -22.86371 v 17.41337 h 24.57271 z"
       style="-inkscape-font-specification:'Open Sans Bold'"
       id="path1663" />
  </g>
  <g
     aria-label="D"
     transform="matrix(0.14357078,0,0,0.20355974,-13.087977,-7.7406233)"
     id="text41753"
     style="font-size:94.5957px;line-height:1.25;white-space:pre;shape-inside:url(#rect41757);display:inline;fill:#1f170f">
    <path
       d="m 266.08626,158.33118 q 0,16.67434 -9.515,25.54269 -9.46881,8.86834 -27.39026,8.86834 h -19.12237 v -67.52876 h 21.20089 q 16.53577,0 25.68125,8.72978 9.14549,8.72977 9.14549,24.38795 z m -14.87296,0.36951 q 0,-21.75516 -19.21475,-21.75516 h -7.62124 v 43.97222 h 6.14318 q 20.69281,0 20.69281,-22.21706 z"
       style="font-weight:bold;font-family:'Open Sans';-inkscape-font-specification:'Open Sans Bold';text-align:center;text-anchor:middle"
       id="path864" />
  </g>
  <g
     id="layer6"
     style="display:inline"
     transform="scale(3.7795276)">
    <circle
       style="display:inline;opacity:1;fill:#000000;fill-opacity:0.2;stroke-width:0.264584"
       cx="12.7"
       cy="12.435417"
       r="4.2333331"
       id="circle30" />
    <circle
       style="display:inline;fill:#42b546;fill-opacity:1;stroke:#ff0000;stroke-width:0;stroke-miterlimit:4;stroke-dasharray:none;stroke-opacity:1"
       cx="12.7"
       cy="12.170833"
       r="4.2333326"
       id="circle32" />
  </g>
  <g
     id="layer1"
     style="display:inline"
     transform="matrix(3.4359341,0,0,3.4359341,4.3636375,4.1818197)">
    <path
       style="display:inline;fill:none;fill-opacity:0.2;stroke:#000000;stroke-width:0.29581;stroke-miterlimit:4;stroke-dasharray:none;stroke-opacity:0.2"
       d="M 12.147497,9.6993631 V 11.909374 H 9.937488 v 1.105005 h 2.210009 v 2.210008 h 1.105006 v -2.210008 h 2.210009 V 11.909374 H 13.252503 V 9.6993631 Z"
       id="path34" />
    <path
       style="display:inline;fill:#ffffff;fill-opacity:1;stroke:#ffffff;stroke-width:0.29581;stroke-miterlimit:4;stroke-dasharray:none;stroke-opacity:1"
       d="M 12.147498,9.4083215 V 11.618332 H 9.9374883 v 1.105005 h 2.2100097 v 2.210008 h 1.105006 v -2.210008 h 2.210008 V 11.618332 H 13.252504 V 9.4083215 Z"
       id="path5945" />
  </g>
</svg>
